<svg width="918" height="338" viewBox="0 0 918 338" fill="none" xmlns="http://www.w3.org/2000/svg">
<path d="M320.055 258.613C327.398 258.552 334.363 258.648 341.006 258.879V337.565H279.875V259.897C292.821 259.179 306.228 258.728 320.055 258.613ZM392.396 263.911C411.053 266.983 427.61 271.055 444.553 275.228C446.785 275.777 449.024 276.327 451.273 276.878L454.67 294.164H463.267L465.972 280.392C482.454 284.203 500.018 287.718 520.381 290.089L511.024 337.565H406.912L392.396 263.911ZM638.062 337.565H576.931V293.141C577.951 293.138 578.977 293.133 580.01 293.124C600.437 292.954 619.796 292.145 638.062 290.862V337.565ZM638.062 246.45C619.76 247.801 600.281 248.659 579.642 248.83C578.732 248.838 577.829 248.842 576.931 248.845V46.7773H568.334L528.976 246.48C508.674 244.3 491.32 240.816 474.516 236.898L521.054 0H638.062V246.45ZM441.863 228.973C424.074 224.698 405.32 220.609 383.315 217.839L349.602 46.7773H341.006V214.561C334.212 214.345 327.118 214.258 319.687 214.319C306.014 214.433 292.731 214.858 279.875 215.536V0H396.883L441.863 228.973Z" fill="#FACC15"/>
<path d="M917.936 245.951C896.843 251.881 889.851 255.83 869.307 261.606C840.512 269.702 792.422 282.914 726.545 290.694L726.929 291.134V296.782H917.936V337.565H698.747V248.973C772.819 242.204 826.407 227.655 857.317 218.964C867.611 216.07 877.512 212.828 887.483 209.567H698.747V168.783H917.936V245.951Z" fill="#FACC15"/>
<path d="M42.5566 247.782C69.8486 240.373 117.653 228.877 176.634 221.877V168.019H219.19V337.564H176.634V266.497C113.91 274.327 65.4625 287.307 42.5566 293.744V337.564H0V168.019H42.5566V247.782Z" fill="#FACC15"/>
</svg>
